<svg id="Layer_1" data-name="Layer 1" xmlns="http://www.w3.org/2000/svg" viewBox="0 0 512 512">
	<defs>
		<style>.cls-1{fill:#32689a;}</style>
	</defs>
	<title>instagram</title>
	<path class="cls-1" d="M256,46.11c68.37,0,76.49.31,103.44,1.46,25,1.14,38.5,5.31,47.56,8.85a79.74,79.74,0,0,1,29.45,19.15A79.76,79.76,0,0,1,455.6,105c3.54,9.06,7.7,22.59,8.85,47.57,1.25,27,1.46,35.08,1.46,103.46s-0.31,76.5-1.46,103.46c-1.14,25-5.31,38.51-8.85,47.57A84.7,84.7,0,0,1,407,455.69c-9.05,3.54-22.58,7.7-47.56,8.85-27,1.25-35.07,1.46-103.44,1.46s-76.49-.31-103.44-1.46c-25-1.14-38.5-5.31-47.56-8.85a79.74,79.74,0,0,1-29.45-19.15A79.76,79.76,0,0,1,56.4,407.08c-3.54-9.06-7.7-22.59-8.85-47.57-1.25-27-1.46-35.08-1.46-103.46s0.31-76.5,1.46-103.46c1.14-25,5.31-38.51,8.85-47.57A79.76,79.76,0,0,1,75.55,75.57,79.74,79.74,0,0,1,105,56.41c9.05-3.54,22.58-7.7,47.56-8.85,27.06-1.25,35.07-1.46,103.44-1.46M256,0c-69.52,0-78.26.31-105.52,1.56S104.59,7.18,88.35,13.43A125.53,125.53,0,0,0,43,43,125.19,125.19,0,0,0,13.42,88.27C7.08,104.5,2.81,123.13,1.56,150.4S0,186.42,0,255.95s0.31,78.27,1.56,105.54,5.62,45.9,11.86,62.14A125.56,125.56,0,0,0,43,469a125.53,125.53,0,0,0,45.37,29.56c16.23,6.35,34.86,10.62,62.13,11.87S186.48,512,256,512s78.26-.31,105.52-1.56,45.89-5.62,62.13-11.87a131.09,131.09,0,0,0,74.93-74.94c6.35-16.24,10.61-34.87,11.86-62.14s1.56-36,1.56-105.54-0.31-78.27-1.56-105.54-5.62-45.9-11.86-62.14A126.25,126.25,0,0,0,469.13,43a125.53,125.53,0,0,0-45.37-29.56C407.52,7.08,388.89,2.81,361.63,1.56S325.52,0,256,0h0Z"/>
	<path class="cls-1" d="M256,124.59A131.46,131.46,0,1,0,387.43,256.05,131.45,131.45,0,0,0,256,124.59Zm0,216.81a85.35,85.35,0,1,1,85.33-85.35A85.33,85.33,0,0,1,256,341.4Z"/>
	<ellipse class="cls-1" cx="392.74" cy="119.39" rx="30.7" ry="30.71"/>
</svg>
