<svg id="Layer_1" data-name="Layer 1" xmlns="http://www.w3.org/2000/svg" viewBox="0 0 431.21 431.21">
	<defs>
		<style>.cls-1{fill:#32689a;}</style>
	</defs>
	<title>www</title>
	<path class="cls-1" d="M233.36,0h34.5a30.3,30.3,0,0,0,4.75,1.29c91.07,9.83,165.06,74,187.2,162.72,2.81,11.28,4.3,22.89,6.41,34.34v34.5a29.34,29.34,0,0,0-1.31,4.74c-9.56,90.35-73.21,164.23-161.34,186.78-11.72,3-23.8,4.59-35.71,6.84h-34.5a30.36,30.36,0,0,0-4.75-1.29C138,420.13,64.5,356.82,41.87,268.56c-3-11.72-4.62-23.8-6.87-35.71v-34.5a29.44,29.44,0,0,0,1.31-4.74C46.1,101.12,112.44,26.23,203.2,5.48,213.15,3.21,223.3,1.81,233.36,0ZM198.27,101a541.74,541.74,0,0,0,104.66-.1C296.16,77.37,288.64,55.24,273,37c-14.75-17.19-29.74-17-44.79-.16-1.11,1.25-2.2,2.53-3.2,3.88C211.86,58.52,204.51,78.87,198.27,101ZM198.12,330c2.11,6.94,3.41,12,5.18,16.91,6.77,18.74,14.09,37.26,28.88,51.43,12.22,11.71,24.66,11.9,36.7.07,18.77-18.44,26.41-42.57,34.22-68.41h-105ZM305.24,182.68c5.42,20.8,10.7,41.13,16,61.45,3.57,13.65,3.6,13.51,18,13.2,3.76-.08,5.49-1.19,6.41-4.94,3.2-13,6.73-25.91,10.18-38.85,0.61-2.27,1.4-4.49,2.7-8.6,3.93,15.12,7.18,28.09,10.67,41,3.69,13.65.36,10.77,14.92,11.41,4.86,0.21,7.2-1.12,8.44-6.1,5.32-21.34,11.07-42.57,16.62-63.85a45.11,45.11,0,0,0,.71-4.65h-16.5L382,237.49c-3.43-14.07-6.55-27-9.75-40-4-16-4-16-20.42-14.94a6.77,6.77,0,0,0-1.67.72L336,234.55l-1.31-.33-11-51.53H305.24Zm-169.35-.08-15.12,54.72L109.23,183H90.76C96,202.84,101,222,106.07,241.18c4.45,16.8,4.48,16.79,22.06,15.93a8.21,8.21,0,0,0,1.82-.69l13.89-52,13.72,52.33c1.56,0.25,2.26.44,3,.47,15.75,0.6,15.72.59,19.68-14.56C185.4,222.79,190.64,203,196,182.76h-17l-10.86,52.15-1,.18L154,182.6H135.89Zm150.34,0.05-11,52.56c-4.6-14.83-8.48-29.51-11.6-44.36-1.35-6.43-3.64-10-10.73-8.55a10.76,10.76,0,0,1-3.58,0c-4.59-.63-6.64,1.13-7.83,5.85-4,16.12-8.69,32.08-13.37,49.1l-8.65-40.16c-3.32-15.42-3.32-15.43-18.91-14.68a10.39,10.39,0,0,0-2.43.92l19.49,73.9c3.63,0,6.31-.35,8.86.07,8,1.31,11.73-1.47,13.42-9.93,2.84-14.25,7.29-28.17,11.31-43.16,3.38,13.18,6.47,25.21,9.54,37.24,4.37,17.11,4.36,17.11,23,15.24l19.56-74.05h-17ZM332.62,122c1.38,9,3.23,17.44,3.8,26,0.39,5.83,2.68,7,8,7,26.82-.22,53.65-0.09,80.47-0.12,2,0,4.08-.32,6.75-0.55a170.35,170.35,0,0,0-24.1-47.69c-1-1.32-4.57-1.63-6.61-1.1-12,3.14-23.85,7-35.91,10C354.41,118.05,343.62,119.81,332.62,122ZM68.28,152.45l2.18,2.33c30.1,0,60.2,0,90.3-.15,1.2,0,3.2-2.12,3.43-3.48,1.62-9.61,2.86-19.29,4.2-28.77a7.71,7.71,0,0,0-1.58-.95c-22.73-5.55-45.45-11.15-68.24-16.44A6.51,6.51,0,0,0,93,107.41C84.57,122.32,76.47,137.41,68.28,152.45ZM188,154.31H313.05c-1-7.21-1.82-13.8-2.95-20.33-1.66-9.67-1.74-9.1-11.76-8.72-23.14.88-46.3,1.47-69.46,1.58-11.88.06-23.77-1.17-36.4-1.85ZM168.64,309.17l-4.48-28.27H69.28L94,327.2Zm163.95,0,74.7,18.11,24.47-46.37H337ZM312.7,280.92H188.43l4.19,25H308.69ZM172,98.71L200.1,30.91C166.39,40.34,137,57.72,110.88,85.06Zm157.3,0.07L390.37,85C363.89,57.69,334.63,40,301.18,31ZM111.3,346.84c26.62,26.91,55.52,44.51,88.69,53.25l-27.77-66.86Zm278.51,0L329,333.28l-27.88,67C334.39,391.08,363.43,373.83,389.82,346.8Z" transform="translate(-35)"/>
</svg>
